<svg width="33" height="33" viewBox="0 0 33 33" fill="none" xmlns="http://www.w3.org/2000/svg">
<path d="M17.5492 12.1502H14.8492V9.45019H17.5492M17.5492 22.9502H14.8492V14.8502H17.5492M16.1992 2.7002C14.4264 2.7002 12.6709 3.04938 11.033 3.72782C9.3951 4.40626 7.90687 5.40066 6.65328 6.65425C4.12154 9.18599 2.69922 12.6198 2.69922 16.2002C2.69922 19.7806 4.12154 23.2144 6.65328 25.7461C7.90687 26.9997 9.3951 27.9941 11.033 28.6726C12.6709 29.351 14.4264 29.7002 16.1992 29.7002C19.7796 29.7002 23.2134 28.2779 25.7452 25.7461C28.2769 23.2144 29.6992 19.7806 29.6992 16.2002C29.6992 14.4273 29.35 12.6719 28.6716 11.034C27.9932 9.39607 26.9987 7.90784 25.7452 6.65425C24.4916 5.40066 23.0033 4.40626 21.3654 3.72782C19.7275 3.04938 17.9721 2.7002 16.1992 2.7002Z" fill="#B76A6A"/>
</svg>
