<svg width="24" height="24" viewBox="0 0 24 24" fill="none" xmlns="http://www.w3.org/2000/svg">
<g clip-path="url(#clip0_1935_8275)">
<path d="M12.0026 1.33301C9.89294 1.33301 7.83065 1.9586 6.07653 3.13067C4.3224 4.30273 2.95523 5.96864 2.14789 7.91772C1.34056 9.8668 1.12932 12.0115 1.5409 14.0806C1.95247 16.1498 2.96838 18.0504 4.46014 19.5421C5.9519 21.0339 7.85252 22.0498 9.92165 22.4614C11.9908 22.873 14.1355 22.6617 16.0846 21.8544C18.0336 21.0471 19.6995 19.6799 20.8716 17.9258C22.0437 16.1716 22.6693 14.1093 22.6693 11.9997C22.6693 9.1707 21.5455 6.45759 19.5451 4.4572C17.5447 2.45681 14.8316 1.33301 12.0026 1.33301ZM19.4359 13.333H4.56928C4.49486 13.333 4.42117 13.3183 4.35242 13.2899C4.28367 13.2614 4.2212 13.2197 4.16858 13.167C4.11596 13.1144 4.07422 13.0519 4.04574 12.9832C4.01727 12.9144 4.00261 12.8408 4.00261 12.7663V11.233C4.00261 11.0827 4.06231 10.9386 4.16858 10.8323C4.27485 10.726 4.41899 10.6663 4.56928 10.6663H19.4359C19.5862 10.6663 19.7304 10.726 19.8366 10.8323C19.9429 10.9386 20.0026 11.0827 20.0026 11.233V12.7597C20.0035 12.8346 19.9895 12.9091 19.9614 12.9786C19.9333 13.0481 19.8917 13.1114 19.839 13.1647C19.7863 13.218 19.7235 13.2604 19.6543 13.2892C19.5852 13.3181 19.5109 13.333 19.4359 13.333Z" fill="#A31919"/>
</g>
<defs>
<clipPath id="clip0_1935_8275">
<rect width="24" height="24" fill="white"/>
</clipPath>
</defs>
</svg>
